<svg width="277" height="364" viewBox="0 0 277 364" fill="none" xmlns="http://www.w3.org/2000/svg">
<path d="M242.785 310.319H34.9133V306.537H242.785V310.319Z" fill="#9C7C38"/>
<path d="M242.785 317.879H34.9133V314.097H242.785V317.879Z" fill="#9C7C38"/>
<path d="M242.785 355.672H34.9133V351.893H242.785V355.672Z" fill="#9C7C38"/>
<path d="M242.785 363.232H34.9133V359.453H242.785V363.232Z" fill="#9C7C38"/>
<path d="M144.52 15.5147H140.739V4.17609H144.52V15.5147Z" fill="#9C7C38"/>
<path d="M140.739 19.2935H136.96V7.95474H140.739V19.2935Z" fill="#9C7C38"/>
<path d="M140.739 34.4121H136.96V23.0734H140.739V34.4121Z" fill="#9C7C38"/>
<path d="M140.739 57.0894H136.96V45.7507H140.739V57.0894Z" fill="#9C7C38"/>
<path d="M140.739 83.5454H136.96V72.2068H140.739V83.5454Z" fill="#9C7C38"/>
<path d="M144.52 30.6307H140.739V19.292H144.52V30.6307Z" fill="#9C7C38"/>
<path d="M167.196 30.6307H163.415V19.292H167.196V30.6307Z" fill="#9C7C38"/>
<path d="M148.299 26.8534H144.517V15.5147H148.299V26.8534Z" fill="#9C7C38"/>
<path d="M163.416 34.4108H159.637V15.5134H163.416V34.4108Z" fill="#9C7C38"/>
<path d="M152.077 23.0748H148.296V11.7361H152.077V23.0748Z" fill="#9C7C38"/>
<path d="M163.416 45.7494H159.637V38.1907H163.416V45.7494Z" fill="#9C7C38"/>
<path d="M159.637 23.0748H155.856V11.7361H159.637V23.0748Z" fill="#9C7C38"/>
<path d="M159.637 38.1907H155.856V26.8521H159.637V38.1907Z" fill="#9C7C38"/>
<path d="M155.856 41.9694H152.077V30.6307H155.856V41.9694Z" fill="#9C7C38"/>
<path d="M152.077 45.7507H148.299V34.4121H152.077V45.7507Z" fill="#9C7C38"/>
<path d="M148.299 49.5294H144.52V38.1907H148.299V49.5294Z" fill="#9C7C38"/>
<path d="M144.52 53.3108H140.741V41.9721H144.52V53.3108Z" fill="#9C7C38"/>
<path d="M155.856 19.2947H152.075V7.95612H155.856V19.2947Z" fill="#9C7C38"/>
<path d="M148.299 11.7361H144.517V0.397461H148.299V11.7361Z" fill="#9C7C38"/>
<path d="M140.739 7.95471H152.077V4.17607H140.739V7.95471Z" fill="#9C7C38"/>
<path d="M159.637 26.8534H170.976V23.0734H159.637V26.8534Z" fill="#9C7C38"/>
<path d="M167.197 53.3085H163.415V49.5298H159.637V53.3085H155.858V57.0898H159.637V60.8685H163.415V57.0898H167.197V53.3085Z" fill="#9C7C38"/>
<path d="M170.975 75.9869H167.194V72.2069H163.415V75.9869H159.637V79.7669H163.415V83.5455H167.194V79.7669H170.975V75.9869Z" fill="#9C7C38"/>
<path d="M212.551 38.1913H208.769V34.4126H204.991V38.1913H201.212V41.9726H204.991V45.7513H208.769V41.9726H212.551V38.1913Z" fill="#9C7C38"/>
<path d="M227.668 38.1913H223.887V34.4126H220.108V38.1913H216.329V41.9726H220.108V45.7513H223.887V41.9726H227.668V38.1913Z" fill="#9C7C38"/>
<path d="M220.111 30.6314H216.329V26.8527H212.551V30.6314H208.772V34.4114H212.551V38.1914H216.329V34.4114H220.111V30.6314Z" fill="#9C7C38"/>
<path d="M159.637 41.972H167.195V38.1907H159.637V41.972Z" fill="#9C7C38"/>
<path d="M167.196 34.4108H163.415V41.9681H167.196V34.4108Z" fill="#9C7C38"/>
<path d="M235.228 45.7486H231.447V41.9699H227.668V45.7486H223.889V49.5286H227.668V53.3086H231.447V49.5286H235.228V45.7486Z" fill="#9C7C38"/>
<path d="M155.859 45.7507H163.416V41.9694H155.859V45.7507Z" fill="#9C7C38"/>
<path d="M140.739 11.7347H148.299V7.95471H140.739V11.7347Z" fill="#9C7C38"/>
<path d="M144.517 38.1907H140.739V34.4108H144.517V38.1907Z" fill="#9C7C38"/>
<path d="M140.739 41.9708H136.96V38.1907H140.739V41.9708Z" fill="#9C7C38"/>
<path d="M140.739 110.003H136.96V102.444H140.739V110.003Z" fill="#9C7C38"/>
<path d="M144.52 113.783H140.741V106.223H144.52V113.783Z" fill="#9C7C38"/>
<path d="M148.299 117.561H144.52V110.001H148.299V117.561Z" fill="#9C7C38"/>
<path d="M152.077 117.561H144.517V113.783H152.077V117.561Z" fill="#9C7C38"/>
<path d="M148.299 113.783H140.739V110.004H148.299V113.783Z" fill="#9C7C38"/>
<path d="M144.519 106.225V110.004L136.959 110.002V106.224L144.519 106.225Z" fill="#9C7C38"/>
<path d="M220.108 64.6494H208.769V60.8708H220.108V64.6494Z" fill="#9C7C38"/>
<path d="M204.991 64.6494H197.431V60.8708H204.991V64.6494Z" fill="#9C7C38"/>
<path d="M208.772 57.091V60.8697L201.212 60.8684V57.0897L208.772 57.091Z" fill="#9C7C38"/>
<path d="M212.551 57.0894H204.991V53.3108H212.551V57.0894Z" fill="#9C7C38"/>
<path d="M212.551 57.0894H216.329V68.4281H212.551V57.0894Z" fill="#9C7C38"/>
<path d="M201.212 57.0894H204.991V68.4281H201.212V57.0894Z" fill="#9C7C38"/>
<path d="M204.991 53.3108H208.769V60.8707H204.991V53.3108Z" fill="#9C7C38"/>
<path d="M216.329 49.5324V53.3111L208.769 53.3098V49.5311L216.329 49.5324Z" fill="#9C7C38"/>
<path d="M208.769 49.5307H212.548V57.0894H208.769V49.5307Z" fill="#9C7C38"/>
<path d="M212.551 49.5324V53.3111L220.111 53.3098V49.5311L212.551 49.5324Z" fill="#9C7C38"/>
<path d="M220.108 49.5307H216.329V57.0894H220.108V49.5307Z" fill="#9C7C38"/>
<path d="M212.548 45.7507H216.327V53.3108H212.548V45.7507Z" fill="#9C7C38"/>
<path d="M208.772 64.6494H201.212V68.4281H208.772V64.6494Z" fill="#9C7C38"/>
<path d="M204.991 72.2068H208.769V64.6481H204.991V72.2068Z" fill="#9C7C38"/>
<path d="M144.52 121.343H148.299V113.783H144.52V121.343Z" fill="#9C7C38"/>
<path d="M140.741 125.123H144.52V117.563H140.741V125.123Z" fill="#9C7C38"/>
<path d="M136.963 128.9H140.741V121.341H136.963V128.9Z" fill="#9C7C38"/>
<path d="M136.96 125.121H144.52V121.343H136.96V125.121Z" fill="#9C7C38"/>
<path d="M140.739 121.343H148.299V117.564H140.739V121.343Z" fill="#9C7C38"/>
<path d="M144.517 79.7667H136.96V75.9854H144.517V79.7667Z" fill="#9C7C38"/>
<path d="M197.431 53.3081H170.975V45.7507H197.431V53.3081Z" fill="#9C7C38"/>
<path d="M193.652 57.0881H174.751V49.5295H193.652V57.0881Z" fill="#9C7C38"/>
<path d="M201.212 49.5294H193.652V41.9694H201.212V49.5294Z" fill="#9C7C38"/>
<path d="M170.975 38.1907H182.313V34.4121H170.975V38.1907Z" fill="#9C7C38"/>
<path d="M178.535 38.1907H174.753V30.6321H178.535V38.1907Z" fill="#9C7C38"/>
<path d="M182.313 45.7494H178.532V34.4121H182.313V45.7494Z" fill="#9C7C38"/>
<path d="M197.431 45.7494H193.652V34.4121H197.431V45.7494Z" fill="#9C7C38"/>
<path d="M189.873 41.9694H186.092V34.4121H189.873V41.9694Z" fill="#9C7C38"/>
<path d="M193.652 38.1907H189.871V30.6321H193.652V38.1907Z" fill="#9C7C38"/>
<path d="M182.313 64.6467H178.535V53.3081H182.313V64.6467Z" fill="#9C7C38"/>
<path d="M189.873 64.6467H186.092V53.3081H189.873V64.6467Z" fill="#9C7C38"/>
<path d="M170.975 38.1907H178.535V34.4108H170.975V38.1907Z" fill="#9C7C38"/>
<path d="M174.753 49.5294H189.871V41.9694H174.753V49.5294Z" fill="#9C7C38"/>
<path d="M186.092 41.9708H197.431V34.4108H186.092V41.9708Z" fill="#9C7C38"/>
<path d="M178.532 68.4268H174.753V64.6467H178.532V68.4268Z" fill="#9C7C38"/>
<path d="M186.092 68.4268H182.313V64.6467H186.092V68.4268Z" fill="#9C7C38"/>
<path d="M148.296 34.4121H144.517V30.6308H148.296V34.4121Z" fill="#9C7C38"/>
<path d="M140.739 117.563H136.96V113.783H140.739V117.563Z" fill="#9C7C38"/>
<path d="M144.517 136.46H140.739V132.68H144.517V136.46Z" fill="#9C7C38"/>
<path d="M140.739 140.239H136.96V136.46H140.739V140.239Z" fill="#9C7C38"/>
<path d="M148.299 132.681H144.52V128.9H148.299V132.681Z" fill="#9C7C38"/>
<path d="M152.077 128.901H148.299V125.121H152.077V128.901Z" fill="#9C7C38"/>
<path d="M155.859 125.121H152.08V121.343H155.859V125.121Z" fill="#9C7C38"/>
<path d="M159.637 121.343H155.859V117.563H159.637V121.343Z" fill="#9C7C38"/>
<path d="M163.417 117.564H159.639V113.783H163.417V117.564Z" fill="#9C7C38"/>
<path d="M167.196 113.784H163.417V110.004H167.196V113.784Z" fill="#9C7C38"/>
<path d="M170.977 110.004H167.199V106.225H170.977V110.004Z" fill="#9C7C38"/>
<path d="M174.756 106.225H170.977V102.445H174.756V106.225Z" fill="#9C7C38"/>
<path d="M178.537 102.447H174.759V98.6654H178.537V102.447Z" fill="#9C7C38"/>
<path d="M182.316 98.6667H178.537V94.8868H182.316V98.6667Z" fill="#9C7C38"/>
<path d="M186.097 94.8868H182.319V91.1081H186.097V94.8868Z" fill="#9C7C38"/>
<path d="M189.876 91.108H186.097V87.3281H189.876V91.108Z" fill="#9C7C38"/>
<path d="M193.657 87.3294H189.879V83.5481H193.657V87.3294Z" fill="#9C7C38"/>
<path d="M197.436 83.5494H193.657V79.7694H197.436V83.5494Z" fill="#9C7C38"/>
<path d="M201.217 79.7694H197.439V75.9908H201.217V79.7694Z" fill="#9C7C38"/>
<path d="M204.996 75.9908H201.217V72.2108H204.996V75.9908Z" fill="#9C7C38"/>
<path d="M152.075 30.6321H148.296V26.8521H152.075V30.6321Z" fill="#9C7C38"/>
<path d="M155.853 26.8534H152.075V23.0747H155.853V26.8534Z" fill="#9C7C38"/>
<path d="M167.194 64.6497H159.637V60.8697H155.855V64.6497H152.077V68.4284H148.298H148.295V72.2071H144.517V75.9871H159.637V72.2084H163.415V68.4297H167.194V64.6497Z" fill="#9C7C38"/>
<path d="M155.855 57.0884H152.077V49.5298H148.295V53.3084H144.517V57.0884H140.738V72.2071H144.519V68.4284H148.298V64.6471H152.077V60.8684H155.855V57.0884Z" fill="#9C7C38"/>
<path d="M152.074 106.223V98.664H155.856V94.884H152.074V91.104H148.298V87.3253H148.296V87.324H144.517V83.5453H140.738V98.6653H144.517V102.443H148.296V106.223H152.074Z" fill="#9C7C38"/>
<path d="M159.637 94.8839V91.1039H167.194V87.3239H163.415V83.5452H159.637V79.7666H144.519V83.5466H148.298V87.3252H152.077V91.1039H155.855V94.8839H159.637Z" fill="#9C7C38"/>
<path d="M159.637 113.781H155.856V98.6627H159.637V113.781Z" fill="#9C7C38"/>
<path d="M163.416 110.001H155.856V98.6628H163.416V110.001Z" fill="#9C7C38"/>
<path d="M167.196 102.443H159.931V98.6627H167.196V102.443Z" fill="#9C7C38"/>
<path d="M174.753 98.6641H170.975V83.5454H174.753V98.6641Z" fill="#9C7C38"/>
<path d="M182.313 87.3241H178.535V72.2067H182.313V87.3241Z" fill="#9C7C38"/>
<path d="M178.535 94.8841H170.975V83.5454H178.535V94.8841Z" fill="#9C7C38"/>
<path d="M182.313 87.3254H175.051V83.5454H182.313V87.3254Z" fill="#9C7C38"/>
<path d="M182.313 83.5454H174.753V75.9067H182.313V83.5454Z" fill="#9C7C38"/>
<path d="M189.873 83.5468H186.092V68.4281H189.873V83.5468Z" fill="#9C7C38"/>
<path d="M193.652 79.7667H186.092V68.4281H193.652V79.7667Z" fill="#9C7C38"/>
<path d="M197.433 72.2081H190.168V68.4281H197.433V72.2081Z" fill="#9C7C38"/>
<path d="M193.655 15.5142V11.7355H189.874V15.5142H186.095V19.2942H182.314V15.5142H178.535V11.7355H174.754V15.5142H170.975V19.2942H174.754V23.0742H178.535V26.8529H182.314V30.6329H186.092V26.8529H189.874V23.0742H193.655V19.2942H197.434V15.5142H193.655Z" fill="#9C7C38"/>
<path d="M261.684 136.46H273.023V132.68H261.684V136.46Z" fill="#9C7C38"/>
<path d="M246.567 136.46H257.905V132.68H246.567V136.46Z" fill="#9C7C38"/>
<path d="M246.567 113.783H257.905V110.003H246.567V113.783Z" fill="#9C7C38"/>
<path d="M250.345 132.681H261.684V128.901H250.345V132.681Z" fill="#9C7C38"/>
<path d="M242.788 117.563H261.684V113.783H242.788V117.563Z" fill="#9C7C38"/>
<path d="M254.127 128.903H265.465V125.123H254.127V128.903Z" fill="#9C7C38"/>
<path d="M235.228 113.783H242.785V110.003H235.228V113.783Z" fill="#9C7C38"/>
<path d="M223.889 106.224H231.449V79.7681H223.889V106.224Z" fill="#9C7C38"/>
<path d="M220.111 102.447H227.668V83.5454H220.111V102.447Z" fill="#9C7C38"/>
<path d="M227.671 83.5454H235.228V75.9867H227.671V83.5454Z" fill="#9C7C38"/>
<path d="M254.127 121.343H265.465V117.563H254.127V121.343Z" fill="#9C7C38"/>
<path d="M239.007 121.343H250.345V117.563H239.007V121.343Z" fill="#9C7C38"/>
<path d="M235.228 125.123H246.567V121.343H235.228V125.123Z" fill="#9C7C38"/>
<path d="M231.449 128.901H242.788V125.121H231.449V128.901Z" fill="#9C7C38"/>
<path d="M227.668 132.68H239.007V128.9H227.668V132.68Z" fill="#9C7C38"/>
<path d="M223.889 136.459H235.228V132.679H223.889V136.459Z" fill="#9C7C38"/>
<path d="M257.905 125.124H269.244V121.344H257.905V125.124Z" fill="#9C7C38"/>
<path d="M265.465 132.681H276.804V128.901H265.465V132.681Z" fill="#9C7C38"/>
<path d="M269.244 125.121H273.025V136.46H269.244V125.121Z" fill="#9C7C38"/>
<path d="M250.345 106.224H254.127V117.563H250.345V106.224Z" fill="#9C7C38"/>
<path d="M239.007 94.8854H242.788V106.224H239.007V94.8854Z" fill="#9C7C38"/>
<path d="M223.889 110.003V113.783H227.668V117.563H223.889V121.341H220.111V117.563H216.329V113.783H220.111V110.003H223.889Z" fill="#9C7C38"/>
<path d="M201.212 106.224V110.004H204.991V113.784H201.212V117.562H197.431V113.784H193.652V110.004H197.431V106.224H201.212Z" fill="#9C7C38"/>
<path d="M239.007 64.6484V68.4284H242.785V72.2084H239.007V75.9871H235.228V72.2084H231.447V68.4284H235.228V64.6484H239.007Z" fill="#9C7C38"/>
<path d="M239.007 49.5312V53.3112H242.785V57.0912H239.007V60.8699H235.228V57.0912H231.447V53.3112H235.228V49.5312H239.007Z" fill="#9C7C38"/>
<path d="M246.566 57.0885V60.8685H250.348V64.6485H246.566V68.4271H242.788V64.6485H239.009V60.8685H242.788V57.0885H246.566Z" fill="#9C7C38"/>
<path d="M231.447 113.783H235.228V121.341H231.447V113.783Z" fill="#9C7C38"/>
<path d="M235.228 110.003H239.007V117.561H235.228V110.003Z" fill="#9C7C38"/>
<path d="M239.007 102.444H246.567V98.6641H239.007V102.444Z" fill="#9C7C38"/>
<path d="M231.449 98.6654H242.788V94.8854H231.449V98.6654Z" fill="#9C7C38"/>
<path d="M231.449 83.5468H242.788V79.7667H231.449V83.5468Z" fill="#9C7C38"/>
<path d="M235.228 91.1055H242.788V87.3254H235.228V91.1055Z" fill="#9C7C38"/>
<path d="M239.007 87.3267H246.567V83.5468H239.007V87.3267Z" fill="#9C7C38"/>
<path d="M212.553 98.6641H223.889V94.8841H212.553V98.6641Z" fill="#9C7C38"/>
<path d="M212.553 91.1055H223.889V87.3254H212.553V91.1055Z" fill="#9C7C38"/>
<path d="M239.007 98.664H242.788V106.223H239.007V98.664Z" fill="#9C7C38"/>
<path d="M227.668 87.3254H235.228V102.444H227.668V87.3254Z" fill="#9C7C38"/>
<path d="M235.225 79.7668H242.788V91.1055H235.225V79.7668Z" fill="#9C7C38"/>
<path d="M265.465 128.901H269.244V136.46H265.465V128.901Z" fill="#9C7C38"/>
<path d="M239.007 136.46H242.788V132.681H239.007V136.46Z" fill="#9C7C38"/>
<path d="M163.416 136.459H170.976V132.68H163.416V136.459Z" fill="#9C7C38"/>
<path d="M159.637 132.68H167.197V128.901H159.637V132.68Z" fill="#9C7C38"/>
<path d="M163.416 125.121H159.637V132.681H163.416V125.121Z" fill="#9C7C38"/>
<path d="M167.194 128.9H163.415L163.418 136.46H167.197L167.194 128.9Z" fill="#9C7C38"/>
<path d="M216.327 72.2068H212.548L212.551 79.7668H216.329L216.327 72.2068Z" fill="#9C7C38"/>
<path d="M220.108 68.4267H216.329V75.9867H220.108V68.4267Z" fill="#9C7C38"/>
<path d="M223.887 64.6481H220.108V72.2081H223.887V64.6481Z" fill="#9C7C38"/>
<path d="M220.111 72.208H208.772V75.9867H220.111V72.208Z" fill="#9C7C38"/>
<path d="M223.887 68.4281H216.329V72.2068H223.887V68.4281Z" fill="#9C7C38"/>
<path d="M227.668 60.8695H223.889V68.4294H227.668V60.8695Z" fill="#9C7C38"/>
<path d="M227.668 64.6494H220.108V68.4281H227.668V64.6494Z" fill="#9C7C38"/>
<path d="M227.668 64.6481H223.889V57.0881H227.668V64.6481Z" fill="#9C7C38"/>
<path d="M227.668 60.868H220.108V57.0894H227.668V60.868Z" fill="#9C7C38"/>
<path d="M223.887 57.0894H216.329V53.3108H223.887V57.0894Z" fill="#9C7C38"/>
<path d="M231.447 60.8708H223.889V64.6494H231.447V60.8708Z" fill="#9C7C38"/>
<path d="M208.772 68.4269H212.551L212.548 75.9869H208.769L208.772 68.4269Z" fill="#9C7C38"/>
<path d="M204.991 68.4281H212.551V72.2068H204.991V68.4281Z" fill="#9C7C38"/>
<path d="M155.859 128.9H163.416V132.679H155.859V128.9Z" fill="#9C7C38"/>
<path d="M152.077 132.68H159.637V136.459H152.077V132.68Z" fill="#9C7C38"/>
<path d="M159.634 136.46H155.855L155.858 128.9H159.637L159.634 136.46Z" fill="#9C7C38"/>
<path d="M197.431 136.46H201.212V132.681H197.431V136.46Z" fill="#9C7C38"/>
<path d="M136.96 4.17609H140.739V0.397446H136.96V4.17609Z" fill="#9C7C38"/>
<path d="M208.772 102.444H212.551V98.6654H208.772V102.444Z" fill="#9C7C38"/>
<path d="M208.772 94.8841H212.551V91.1054H208.772V94.8841Z" fill="#9C7C38"/>
<path d="M242.788 132.681H246.567V128.903H242.788V132.681Z" fill="#9C7C38"/>
<path d="M246.567 128.903H250.345V125.124H246.567V128.903Z" fill="#9C7C38"/>
<path d="M250.345 125.124H254.127V121.345H250.345V125.124Z" fill="#9C7C38"/>
<path d="M212.548 110.004V117.562H216.329V121.342H212.548V125.122H208.772V128.901H208.769V128.902H204.991V132.681H201.212V117.561H204.991V113.784H208.769V110.004H212.548Z" fill="#9C7C38"/>
<path d="M220.111 121.342V125.122H227.668V128.902H223.889V132.681H220.111V136.46H204.993V132.68H208.772V128.901H212.551V125.122H216.329V121.342H220.111Z" fill="#9C7C38"/>
<path d="M170.975 125.124H178.535V121.342H182.314V125.124H186.095V128.901H189.874V128.902V132.681H193.653V136.46H178.533V132.681H174.757V128.902H170.975V125.124Z" fill="#9C7C38"/>
<path d="M182.314 117.561H186.095V110.004H189.874V113.782H193.653V117.561H197.431V132.68H193.653V128.901H189.874V125.121H186.095V121.342H182.314V117.561Z" fill="#9C7C38"/>
<path d="M163.417 121.343H178.535V117.563H163.417V121.343Z" fill="#9C7C38"/>
<path d="M167.196 121.343H178.535V113.783H167.196V121.343Z" fill="#9C7C38"/>
<path d="M174.756 117.267H178.535V110.003H174.756V117.267Z" fill="#9C7C38"/>
<path d="M178.535 106.224H193.652V102.444H178.535V106.224Z" fill="#9C7C38"/>
<path d="M189.873 98.6641H204.993V94.8841H189.873V98.6641Z" fill="#9C7C38"/>
<path d="M182.313 106.224H193.652V98.6641H182.313V106.224Z" fill="#9C7C38"/>
<path d="M201.212 124.825H204.991V117.561H201.212V124.825Z" fill="#9C7C38"/>
<path d="M193.655 102.444H201.293V94.8841H193.655V102.444Z" fill="#9C7C38"/>
<path d="M193.652 91.1055H208.769V87.3254H193.652V91.1055Z" fill="#9C7C38"/>
<path d="M197.431 91.1055H208.769V83.5454H197.431V91.1055Z" fill="#9C7C38"/>
<path d="M204.991 87.0294H208.769V79.7654H204.991V87.0294Z" fill="#9C7C38"/>
<path d="M261.686 83.5454H265.465V87.3267H261.686V91.1054H257.905V94.8841H261.686V98.6627H265.465V102.444H261.686V106.223H257.905V102.444H254.126V98.6654H250.345V94.8841H246.566V91.1054H250.345V87.3267H254.126V83.5454H257.905V79.7667H261.686V83.5454Z" fill="#9C7C38"/>
<path d="M261.687 140.24H273.025V144.02H261.687V140.24Z" fill="#9C7C38"/>
<path d="M257.905 136.46H269.244V140.24H257.905V136.46Z" fill="#9C7C38"/>
<path d="M242.788 136.46H254.127V140.24H242.788V136.46Z" fill="#9C7C38"/>
<path d="M220.111 136.46H231.449V140.24H220.111V136.46Z" fill="#9C7C38"/>
<path d="M193.655 136.46H204.993V140.24H193.655V136.46Z" fill="#9C7C38"/>
<path d="M246.567 140.24H257.905V144.02H246.567V140.24Z" fill="#9C7C38"/>
<path d="M246.567 162.916H257.905V166.696H246.567V162.916Z" fill="#9C7C38"/>
<path d="M250.348 144.019H261.687V147.799H250.348V144.019Z" fill="#9C7C38"/>
<path d="M242.788 159.136H261.687V162.916H242.788V159.136Z" fill="#9C7C38"/>
<path d="M254.127 147.797H265.465V151.577H254.127V147.797Z" fill="#9C7C38"/>
<path d="M235.228 162.915H242.785V166.695H235.228V162.915Z" fill="#9C7C38"/>
<path d="M223.892 170.475H231.449V196.931H223.892V170.475Z" fill="#9C7C38"/>
<path d="M220.111 174.252H227.668V193.153H220.111V174.252Z" fill="#9C7C38"/>
<path d="M227.671 193.152H235.228V200.712H227.671V193.152Z" fill="#9C7C38"/>
<path d="M254.127 155.356H265.465V159.136H254.127V155.356Z" fill="#9C7C38"/>
<path d="M239.009 155.356H250.348V159.136H239.009V155.356Z" fill="#9C7C38"/>
<path d="M235.228 151.576H246.567V155.356H235.228V151.576Z" fill="#9C7C38"/>
<path d="M231.449 147.797H242.788V151.577H231.449V147.797Z" fill="#9C7C38"/>
<path d="M227.668 144.02H239.007V147.8H227.668V144.02Z" fill="#9C7C38"/>
<path d="M223.889 140.241H235.228V144.021H223.889V140.241Z" fill="#9C7C38"/>
<path d="M257.905 151.576H269.244V155.356H257.905V151.576Z" fill="#9C7C38"/>
<path d="M265.465 144.019H276.804V147.799H265.465V144.019Z" fill="#9C7C38"/>
<path d="M269.244 151.577H273.025V140.239H269.244V151.577Z" fill="#9C7C38"/>
<path d="M250.348 170.475H254.127V159.136H250.348V170.475Z" fill="#9C7C38"/>
<path d="M239.007 181.813H242.788V170.475H239.007V181.813Z" fill="#9C7C38"/>
<path d="M223.889 166.696V162.916H227.671V159.136H223.889V155.358H220.111V159.136H216.332V162.916H220.111V166.696H223.889Z" fill="#9C7C38"/>
<path d="M201.212 170.475V166.695H204.991V162.915H201.212V159.136H197.434V162.915H193.652V166.695H197.434V170.475H201.212Z" fill="#9C7C38"/>
<path d="M239.007 212.051V208.271H242.788V204.491H239.007V200.712H235.228V204.491H231.449V208.271H235.228V212.051H239.007Z" fill="#9C7C38"/>
<path d="M239.007 227.168V223.388H242.788V219.608H239.007V215.829H235.228V219.608H231.449V223.388H235.228V227.168H239.007Z" fill="#9C7C38"/>
<path d="M246.569 219.611V215.831H250.348V212.051H246.569V208.272H242.788V212.051H239.009V215.831H242.788V219.611H246.569Z" fill="#9C7C38"/>
<path d="M231.452 234.728V230.948H235.231V227.168H231.452V223.389H227.671V227.168H223.892V230.948H227.671V234.728H231.452Z" fill="#9C7C38"/>
<path d="M231.447 162.915H235.225V155.356H231.447V162.915Z" fill="#9C7C38"/>
<path d="M235.225 166.695H239.007V159.136H235.225V166.695Z" fill="#9C7C38"/>
<path d="M239.009 174.255H246.567V178.035H239.009V174.255Z" fill="#9C7C38"/>
<path d="M231.449 178.033H242.788V181.813H231.449V178.033Z" fill="#9C7C38"/>
<path d="M231.449 193.152H242.788V196.932H231.449V193.152Z" fill="#9C7C38"/>
<path d="M235.228 185.593H242.788V189.373H235.228V185.593Z" fill="#9C7C38"/>
<path d="M239.009 189.372H246.567V193.152H239.009V189.372Z" fill="#9C7C38"/>
<path d="M212.553 178.035H223.892V181.815H212.553V178.035Z" fill="#9C7C38"/>
<path d="M212.553 185.593H223.892V189.373H212.553V185.593Z" fill="#9C7C38"/>
<path d="M239.009 178.035H242.788V170.476H239.009V178.035Z" fill="#9C7C38"/>
<path d="M227.668 189.372H235.228V174.255H227.668V189.372Z" fill="#9C7C38"/>
<path d="M235.225 196.932H242.788V185.593H235.225V196.932Z" fill="#9C7C38"/>
<path d="M265.465 147.797H269.244V140.239H265.465V147.797Z" fill="#9C7C38"/>
<path d="M239.009 140.24H242.788V144.019H239.009V140.24Z" fill="#9C7C38"/>
<path d="M235.228 136.461H239.009V140.24H235.228V136.461Z" fill="#9C7C38"/>
<path d="M167.196 136.461H174.756V140.24H167.196V136.461Z" fill="#9C7C38"/>
<path d="M163.416 140.241H170.976V144.02H163.416V140.241Z" fill="#9C7C38"/>
<path d="M159.639 144.02H167.196V147.799H159.639V144.02Z" fill="#9C7C38"/>
<path d="M163.415 151.578H159.637L159.639 144.018H163.418L163.415 151.578Z" fill="#9C7C38"/>
<path d="M167.196 147.799H163.417V140.239H167.196V147.799Z" fill="#9C7C38"/>
<path d="M170.975 144.02H167.196V136.46H170.975V144.02Z" fill="#9C7C38"/>
<path d="M216.329 219.609H212.551V208.271H216.329V219.609Z" fill="#9C7C38"/>
<path d="M216.329 204.492H212.551V196.932H216.329V204.492Z" fill="#9C7C38"/>
<path d="M220.108 208.272H216.329V200.712H220.108V208.272Z" fill="#9C7C38"/>
<path d="M223.887 212.051H220.108L220.111 204.491H223.889L223.887 212.051Z" fill="#9C7C38"/>
<path d="M220.111 215.831H208.772V212.052H220.111V215.831Z" fill="#9C7C38"/>
<path d="M220.111 204.491H208.772V200.712H220.111V204.491Z" fill="#9C7C38"/>
<path d="M223.889 208.271H216.329V204.492H223.889V208.271Z" fill="#9C7C38"/>
<path d="M227.668 215.829H223.889V208.269H227.668V215.829Z" fill="#9C7C38"/>
<path d="M227.668 212.049H220.108V208.271H227.668V212.049Z" fill="#9C7C38"/>
<path d="M227.668 212.051H223.889V219.611H227.668V212.051Z" fill="#9C7C38"/>
<path d="M227.668 215.831H220.108V219.609H227.668V215.831Z" fill="#9C7C38"/>
<path d="M223.887 219.609H216.327V223.388H223.887V219.609Z" fill="#9C7C38"/>
<path d="M231.449 215.828H223.889V212.049H231.449V215.828Z" fill="#9C7C38"/>
<path d="M208.772 208.272H212.551V200.712H208.772V208.272Z" fill="#9C7C38"/>
<path d="M204.991 208.271H212.551V204.492H204.991V208.271Z" fill="#9C7C38"/>
<path d="M155.859 147.799H163.419V144.02H155.859V147.799Z" fill="#9C7C38"/>
<path d="M152.077 144.02H159.637V140.241H152.077V144.02Z" fill="#9C7C38"/>
<path d="M148.299 140.241H155.859V136.463H148.299V140.241Z" fill="#9C7C38"/>
<path d="M155.855 136.461H152.077L152.079 144.021H155.858L155.855 136.461Z" fill="#9C7C38"/>
<path d="M159.637 140.24H155.859V147.8H159.637V140.24Z" fill="#9C7C38"/>
<path d="M197.433 136.46H201.212V144.019H197.433V136.46Z" fill="#9C7C38"/>
<path d="M208.772 174.255H212.553V178.033H208.772V174.255Z" fill="#9C7C38"/>
<path d="M208.772 181.815H212.553V185.593H208.772V181.815Z" fill="#9C7C38"/>
<path d="M242.788 144.019H246.567V147.797H242.788V144.019Z" fill="#9C7C38"/>
<path d="M159.637 136.461H163.419V140.24H159.637V136.461Z" fill="#9C7C38"/>
<path d="M140.741 140.24H144.52V144.019H140.741V140.24Z" fill="#9C7C38"/>
<path d="M144.52 144.02H148.299V147.799H144.52V144.02Z" fill="#9C7C38"/>
<path d="M148.299 147.799H152.08V151.577H148.299V147.799Z" fill="#9C7C38"/>
<path d="M152.077 151.579H155.859V155.357H152.077V151.579Z" fill="#9C7C38"/>
<path d="M155.859 155.359H159.637V159.137H155.859V155.359Z" fill="#9C7C38"/>
<path d="M159.637 159.139H163.416V162.917H159.637V159.139Z" fill="#9C7C38"/>
<path d="M163.416 162.919H167.197V166.697H163.416V162.919Z" fill="#9C7C38"/>
<path d="M167.195 166.699H170.976V170.477H167.195V166.699Z" fill="#9C7C38"/>
<path d="M170.975 170.479H174.753V174.257H170.975V170.479Z" fill="#9C7C38"/>
<path d="M174.753 174.259H178.532V178.037H174.753V174.259Z" fill="#9C7C38"/>
<path d="M178.532 178.039H182.313V181.817H178.532V178.039Z" fill="#9C7C38"/>
<path d="M182.311 181.819H186.092V185.597H182.311V181.819Z" fill="#9C7C38"/>
<path d="M186.092 185.599H189.871V189.377H186.092V185.599Z" fill="#9C7C38"/>
<path d="M189.871 189.379H193.649V193.157H189.871V189.379Z" fill="#9C7C38"/>
<path d="M193.649 193.159H197.431V196.937H193.649V193.159Z" fill="#9C7C38"/>
<path d="M197.428 196.939H201.209V200.717H197.428V196.939Z" fill="#9C7C38"/>
<path d="M201.209 200.719H204.988V204.497H201.209V200.719Z" fill="#9C7C38"/>
<path d="M246.567 147.797H250.348V151.576H246.567V147.797Z" fill="#9C7C38"/>
<path d="M250.345 151.576H254.127V155.355H250.345V151.576Z" fill="#9C7C38"/>
<path d="M212.551 166.695V159.136H216.329V155.356H212.551V151.576H208.772V147.798V147.796H204.993V144.018H201.212V159.138H204.991V162.915H208.769V166.695H212.551Z" fill="#9C7C38"/>
<path d="M220.111 155.357V151.577H227.671V147.797H223.889V144.018H220.111V140.239H204.993V144.019H208.772V147.798H212.551V151.577H216.332V155.357H220.111Z" fill="#9C7C38"/>
<path d="M170.978 151.575H178.535V155.357H182.317V151.575H186.095V147.798H189.874V147.797H189.877V144.018H193.655V140.239H178.535V144.018H174.757V147.797H170.978V151.575Z" fill="#9C7C38"/>
<path d="M182.316 159.138H186.095V166.695H189.876V162.917H193.655V159.138H197.434V144.019H193.652V147.798H189.874V151.578H186.095V155.357H182.316V159.138Z" fill="#9C7C38"/>
<path d="M163.417 155.356H178.535V159.136H163.417V155.356Z" fill="#9C7C38"/>
<path d="M167.196 155.356H178.535V162.916H167.196V155.356Z" fill="#9C7C38"/>
<path d="M174.756 159.432H178.535V166.696H174.756V159.432Z" fill="#9C7C38"/>
<path d="M178.535 170.475H193.652V174.255H178.535V170.475Z" fill="#9C7C38"/>
<path d="M189.876 178.035H204.993V181.815H189.876V178.035Z" fill="#9C7C38"/>
<path d="M182.313 170.475H193.652V178.035H182.313V170.475Z" fill="#9C7C38"/>
<path d="M189.873 174.551H193.652V181.815H189.873V174.551Z" fill="#9C7C38"/>
<path d="M193.655 174.255H201.293V181.815H193.655V174.255Z" fill="#9C7C38"/>
<path d="M193.652 185.593H208.769V189.373H193.652V185.593Z" fill="#9C7C38"/>
<path d="M197.431 185.593H208.769V193.153H197.431V185.593Z" fill="#9C7C38"/>
<path d="M204.991 189.669H208.769V196.933H204.991V189.669Z" fill="#9C7C38"/>
<path d="M261.684 193.154H265.465V189.372H261.684V185.594H257.905V181.814H261.684V178.035H265.465V174.254H261.684V170.475H257.905V174.254H254.126V178.034H250.345V181.814H246.566V185.592H250.345V189.372H254.126V193.154H257.905V196.932H261.684V193.154Z" fill="#9C7C38"/>
<path d="M144.52 261.185H140.741V272.524H144.52V261.185Z" fill="#9C7C38"/>
<path d="M144.52 246.068H140.741V257.407H144.52V246.068Z" fill="#9C7C38"/>
<path d="M167.196 246.068H163.417V257.407H167.196V246.068Z" fill="#9C7C38"/>
<path d="M148.299 249.847H144.52V261.185H148.299V249.847Z" fill="#9C7C38"/>
<path d="M163.417 242.288H159.636V261.185H163.417V242.288Z" fill="#9C7C38"/>
<path d="M152.077 253.627H148.299V264.965H152.077V253.627Z" fill="#9C7C38"/>
<path d="M167.195 234.728H163.416V242.287H167.195V234.728Z" fill="#9C7C38"/>
<path d="M197.431 223.391H170.975V230.949H197.431V223.391Z" fill="#9C7C38"/>
<path d="M193.655 219.611H174.753V227.169H193.655V219.611Z" fill="#9C7C38"/>
<path d="M201.212 227.171H193.652V234.729H201.212V227.171Z" fill="#9C7C38"/>
<path d="M159.637 253.627H155.859V264.965H159.637V253.627Z" fill="#9C7C38"/>
<path d="M159.637 238.508H155.859V249.847H159.637V238.508Z" fill="#9C7C38"/>
<path d="M155.859 234.729H152.077V246.068H155.859V234.729Z" fill="#9C7C38"/>
<path d="M152.08 230.949H148.299V242.288H152.08V230.949Z" fill="#9C7C38"/>
<path d="M148.301 227.169H144.52V238.508H148.301V227.169Z" fill="#9C7C38"/>
<path d="M144.523 223.389H140.741V234.728H144.523V223.389Z" fill="#9C7C38"/>
<path d="M155.856 257.405H152.077V268.744H155.856V257.405Z" fill="#9C7C38"/>
<path d="M148.299 264.964H144.52V276.303H148.299V264.964Z" fill="#9C7C38"/>
<path d="M140.741 268.744H152.08V272.524H140.741V268.744Z" fill="#9C7C38"/>
<path d="M159.637 249.847H170.976V253.627H159.637V249.847Z" fill="#9C7C38"/>
<path d="M170.975 238.508H182.313V242.288H170.975V238.508Z" fill="#9C7C38"/>
<path d="M167.197 223.391H163.418V227.169H159.637V223.391H155.858V219.611H159.637V215.831H163.418V219.611H167.197V223.391Z" fill="#9C7C38"/>
<path d="M170.975 200.712H167.197V204.492H163.415V200.712H159.637V196.932H163.415V193.153H167.197V196.932H170.975V200.712Z" fill="#9C7C38"/>
<path d="M212.551 238.508H208.772V242.286H204.991V238.508H201.212V234.728H204.991V230.948H208.772V234.728H212.551V238.508Z" fill="#9C7C38"/>
<path d="M227.668 238.508H223.889V242.286H220.108V238.508H216.329V234.728H220.108V230.948H223.889V234.728H227.668V238.508Z" fill="#9C7C38"/>
<path d="M220.111 246.068H216.332V249.848H212.551V246.068H208.772V242.288H212.551V238.509H216.332V242.288H220.111V246.068Z" fill="#9C7C38"/>
<path d="M155.856 230.948H163.416V234.728H155.856V230.948Z" fill="#9C7C38"/>
<path d="M159.637 234.728H167.195V238.508H159.637V234.728Z" fill="#9C7C38"/>
<path d="M178.535 238.508H174.756V246.067H178.535V238.508Z" fill="#9C7C38"/>
<path d="M182.313 230.949H178.535V242.288H182.313V230.949Z" fill="#9C7C38"/>
<path d="M197.433 230.949H193.652V242.288H197.433V230.949Z" fill="#9C7C38"/>
<path d="M189.873 234.729H186.095V242.288H189.873V234.729Z" fill="#9C7C38"/>
<path d="M193.652 238.508H189.873V246.067H193.652V238.508Z" fill="#9C7C38"/>
<path d="M182.316 212.053H178.535V223.391H182.316V212.053Z" fill="#9C7C38"/>
<path d="M189.873 212.053H186.095V223.391H189.873V212.053Z" fill="#9C7C38"/>
<path d="M170.977 238.508H178.535V242.288H170.977V238.508Z" fill="#9C7C38"/>
<path d="M174.756 227.169H189.871V234.729H174.756V227.169Z" fill="#9C7C38"/>
<path d="M186.095 234.728H197.433V242.288H186.095V234.728Z" fill="#9C7C38"/>
<path d="M140.741 264.964H148.299V268.744H140.741V264.964Z" fill="#9C7C38"/>
<path d="M144.52 238.508H140.741V242.288H144.52V238.508Z" fill="#9C7C38"/>
<path d="M144.52 162.916H140.741V170.476H144.52V162.916Z" fill="#9C7C38"/>
<path d="M148.299 159.137H144.52V166.697H148.299V159.137Z" fill="#9C7C38"/>
<path d="M152.08 159.137H144.52V162.916H152.08V159.137Z" fill="#9C7C38"/>
<path d="M148.301 166.695V162.916L140.741 162.918V166.696L148.301 166.695Z" fill="#9C7C38"/>
<path d="M204.993 215.828V212.049L197.433 212.051V215.829L204.993 215.828Z" fill="#9C7C38"/>
<path d="M208.772 219.608V215.829L201.212 215.831V219.609L208.772 219.608Z" fill="#9C7C38"/>
<path d="M212.551 219.609H204.991V223.388H212.551V219.609Z" fill="#9C7C38"/>
<path d="M201.212 219.611H204.991V208.272H201.212V219.611Z" fill="#9C7C38"/>
<path d="M204.993 223.388H208.772V215.829H204.993V223.388Z" fill="#9C7C38"/>
<path d="M216.329 223.389H208.769V227.168H216.329V223.389Z" fill="#9C7C38"/>
<path d="M208.772 227.168H212.551V219.609H208.772V227.168Z" fill="#9C7C38"/>
<path d="M212.551 223.389H220.111V227.168H212.551V223.389Z" fill="#9C7C38"/>
<path d="M220.111 227.168H216.332V219.609H220.111V227.168Z" fill="#9C7C38"/>
<path d="M212.551 230.948H216.329V223.389H212.551V230.948Z" fill="#9C7C38"/>
<path d="M208.772 208.272V212.051L201.212 212.049V208.271L208.772 208.272Z" fill="#9C7C38"/>
<path d="M204.993 204.492H208.772V212.051H204.993V204.492Z" fill="#9C7C38"/>
<path d="M144.523 155.357H148.301V162.916H144.523V155.357Z" fill="#9C7C38"/>
<path d="M140.741 151.576H144.52V159.136H140.741V151.576Z" fill="#9C7C38"/>
<path d="M140.741 159.135V155.356L148.301 155.358V159.136L140.741 159.135Z" fill="#9C7C38"/>
<path d="M144.52 196.932H140.741V200.712H144.52V196.932Z" fill="#9C7C38"/>
<path d="M276.804 136.46H273.025V140.24H276.804V136.46Z" fill="#9C7C38"/>
<path d="M178.535 208.272H174.756V212.052H178.535V208.272Z" fill="#9C7C38"/>
<path d="M186.095 208.272H182.316V212.052H186.095V208.272Z" fill="#9C7C38"/>
<path d="M148.299 242.288H144.52V246.068H148.299V242.288Z" fill="#9C7C38"/>
<path d="M152.077 246.067H148.299V249.847H152.077V246.067Z" fill="#9C7C38"/>
<path d="M155.856 249.847H152.077V253.627H155.856V249.847Z" fill="#9C7C38"/>
<path d="M167.197 212.049H159.637V215.829H155.858V212.049H152.077V208.272H148.298V208.271V204.492H144.519V200.712H159.639V204.491H163.415V208.269H167.197V212.049Z" fill="#9C7C38"/>
<path d="M155.858 219.611H152.077V227.169H148.298V223.391H144.519V219.611H140.741V204.493H144.519V208.272H148.298V212.052H152.077V215.831H155.858V219.611Z" fill="#9C7C38"/>
<path d="M152.077 170.476V178.035H155.858V181.815H152.077V185.595H148.298V189.374V189.375H144.519V193.154H140.741V178.034H144.519V174.256H148.298V170.476H152.077Z" fill="#9C7C38"/>
<path d="M159.639 181.815V185.595H167.197V189.375H163.418V193.154H159.639V196.932H144.519V193.152H148.298V189.374H152.079V185.595H155.858V181.815H159.639Z" fill="#9C7C38"/>
<path d="M159.637 162.917H155.859V178.036H159.637V162.917Z" fill="#9C7C38"/>
<path d="M163.417 166.697H155.857V178.036H163.417V166.697Z" fill="#9C7C38"/>
<path d="M167.196 174.256H159.933V178.036H167.196V174.256Z" fill="#9C7C38"/>
<path d="M174.756 178.035H170.975V193.153H174.756V178.035Z" fill="#9C7C38"/>
<path d="M182.316 189.375H178.535V204.493H182.316V189.375Z" fill="#9C7C38"/>
<path d="M178.535 181.815H170.975V193.153H178.535V181.815Z" fill="#9C7C38"/>
<path d="M159.639 200.712H152.373V204.492H159.639V200.712Z" fill="#9C7C38"/>
<path d="M182.316 193.155H174.756V200.793H182.316V193.155Z" fill="#9C7C38"/>
<path d="M189.873 193.152H186.095V208.271H189.873V193.152Z" fill="#9C7C38"/>
<path d="M193.655 196.932H186.095V208.271H193.655V196.932Z" fill="#9C7C38"/>
<path d="M197.433 204.491H190.171V208.271H197.433V204.491Z" fill="#9C7C38"/>
<path d="M193.655 261.185V264.963H189.874V261.185H186.095V257.405H182.314V261.185H178.535V264.963H174.754V261.185H170.975V257.405H174.754V253.625H178.535V249.845H182.314V246.066H186.092V249.845H189.874V253.625H193.655V257.405H197.434V261.185H193.655Z" fill="#9C7C38"/>
<path d="M133.179 261.187H136.96V272.525H133.179V261.187Z" fill="#9C7C38"/>
<path d="M136.96 257.407H140.739V268.745H136.96V257.407Z" fill="#9C7C38"/>
<path d="M136.96 242.288H140.739V253.627H136.96V242.288Z" fill="#9C7C38"/>
<path d="M136.96 219.611H140.739V230.949H136.96V219.611Z" fill="#9C7C38"/>
<path d="M136.96 193.155H140.739V204.493H136.96V193.155Z" fill="#9C7C38"/>
<path d="M133.179 246.068H136.96V257.407H133.179V246.068Z" fill="#9C7C38"/>
<path d="M110.501 246.068H114.281V257.407H110.501V246.068Z" fill="#9C7C38"/>
<path d="M129.4 249.848H133.18V261.187H129.4V249.848Z" fill="#9C7C38"/>
<path d="M114.281 242.288H118.061V261.187H114.281V242.288Z" fill="#9C7C38"/>
<path d="M125.621 253.627H129.401V264.965H125.621V253.627Z" fill="#9C7C38"/>
<path d="M110.501 234.727H114.281V242.287H110.501V234.727Z" fill="#9C7C38"/>
<path d="M80.268 223.392H106.724V230.949H80.268V223.392Z" fill="#9C7C38"/>
<path d="M84.0453 219.611H102.947V227.169H84.0453V219.611Z" fill="#9C7C38"/>
<path d="M76.4867 227.171H84.0453V234.729H76.4867V227.171Z" fill="#9C7C38"/>
<path d="M118.061 253.627H121.841V264.965H118.061V253.627Z" fill="#9C7C38"/>
<path d="M118.061 238.509H121.841V249.848H118.061V238.509Z" fill="#9C7C38"/>
<path d="M121.841 234.729H125.621V246.068H121.841V234.729Z" fill="#9C7C38"/>
<path d="M125.62 230.949H129.4V242.288H125.62V230.949Z" fill="#9C7C38"/>
<path d="M129.399 227.169H133.177V238.508H129.399V227.169Z" fill="#9C7C38"/>
<path d="M133.179 223.389H136.957V234.728H133.179V223.389Z" fill="#9C7C38"/>
<path d="M121.843 257.405H125.623V268.744H121.843V257.405Z" fill="#9C7C38"/>
<path d="M129.4 264.964H133.18V276.303H129.4V264.964Z" fill="#9C7C38"/>
<path d="M136.96 268.744H125.621V272.524H136.96V268.744Z" fill="#9C7C38"/>
<path d="M118.061 249.848H106.723V253.627H118.061V249.848Z" fill="#9C7C38"/>
<path d="M106.723 238.508H95.384V242.288H106.723V238.508Z" fill="#9C7C38"/>
<path d="M110.502 223.39H114.282V227.17H118.062V223.39H121.841V219.61H118.062V215.832H114.282V219.61H110.502V223.39Z" fill="#9C7C38"/>
<path d="M106.723 200.712H110.503V204.492H114.283V200.712H118.062V196.933H114.283V193.153H110.503V196.933H106.723V200.712Z" fill="#9C7C38"/>
<path d="M65.1477 238.508H68.9277V242.288H72.7077V238.508H76.4864V234.728H72.7077V230.949H68.9277V234.728H65.1477V238.508Z" fill="#9C7C38"/>
<path d="M50.0305 238.508H53.8105V242.288H57.5905V238.508H61.3692V234.728H57.5905V230.949H53.8105V234.728H50.0305V238.508Z" fill="#9C7C38"/>
<path d="M57.5879 246.069H61.3679V249.848H65.1479V246.069H68.9265V242.288H65.1479V238.509H61.3679V242.288H57.5879V246.069Z" fill="#9C7C38"/>
<path d="M42.4706 230.952H46.2506V234.73H50.0306V230.952H53.8093V227.17H50.0306V223.392H46.2506V227.17H42.4706V230.952Z" fill="#9C7C38"/>
<path d="M121.84 230.947H114.281V234.727H121.84V230.947Z" fill="#9C7C38"/>
<path d="M118.06 234.727H110.501V238.507H118.06V234.727Z" fill="#9C7C38"/>
<path d="M99.164 238.509H102.944V246.067H99.164V238.509Z" fill="#9C7C38"/>
<path d="M95.3853 230.949H99.1653V242.288H95.3853V230.949Z" fill="#9C7C38"/>
<path d="M80.2667 230.949H84.0467V242.288H80.2667V230.949Z" fill="#9C7C38"/>
<path d="M87.8253 234.729H91.6053V242.288H87.8253V234.729Z" fill="#9C7C38"/>
<path d="M84.0467 238.509H87.8266V246.067H84.0467V238.509Z" fill="#9C7C38"/>
<path d="M95.384 212.053H99.164V223.392H95.384V212.053Z" fill="#9C7C38"/>
<path d="M87.8253 212.053H91.6053V223.392H87.8253V212.053Z" fill="#9C7C38"/>
<path d="M106.723 238.509H99.164V242.288H106.723V238.509Z" fill="#9C7C38"/>
<path d="M102.944 227.169H87.8253V234.729H102.944V227.169Z" fill="#9C7C38"/>
<path d="M91.6053 234.728H80.2667V242.288H91.6053V234.728Z" fill="#9C7C38"/>
<path d="M136.96 264.964H129.401V268.744H136.96V264.964Z" fill="#9C7C38"/>
<path d="M133.181 238.509H136.96V242.288H133.181V238.509Z" fill="#9C7C38"/>
<path d="M136.96 234.728H140.739V238.509H136.96V234.728Z" fill="#9C7C38"/>
<path d="M136.96 166.696H140.739V174.256H136.96V166.696Z" fill="#9C7C38"/>
<path d="M133.179 162.916H136.957V170.476H133.179V162.916Z" fill="#9C7C38"/>
<path d="M129.4 159.139H133.177V166.697H129.4V159.139Z" fill="#9C7C38"/>
<path d="M125.62 162.916V159.138L133.18 159.139V162.918L125.62 162.916Z" fill="#9C7C38"/>
<path d="M129.399 162.917H136.959V166.696H129.399V162.917Z" fill="#9C7C38"/>
<path d="M133.179 166.696H140.739V170.475H133.179V166.696Z" fill="#9C7C38"/>
<path d="M57.5893 212.051H68.928V215.829H57.5893V212.051Z" fill="#9C7C38"/>
<path d="M72.7067 212.051H80.2667V215.829H72.7067V212.051Z" fill="#9C7C38"/>
<path d="M68.9264 219.608V215.829L76.4864 215.83V219.609L68.9264 219.608Z" fill="#9C7C38"/>
<path d="M65.1477 223.388V219.609L72.7077 219.61V223.389L65.1477 223.388Z" fill="#9C7C38"/>
<path d="M65.1466 219.611H61.368V208.272H65.1466V219.611Z" fill="#9C7C38"/>
<path d="M76.4867 219.611H72.708V208.272H76.4867V219.611Z" fill="#9C7C38"/>
<path d="M72.7066 223.389H68.928V215.829H72.7066V223.389Z" fill="#9C7C38"/>
<path d="M61.3693 223.389H68.9293V227.168H61.3693V223.389Z" fill="#9C7C38"/>
<path d="M68.928 227.168H65.1493V219.609H68.928V227.168Z" fill="#9C7C38"/>
<path d="M65.148 223.389H57.588V227.168H65.148V223.389Z" fill="#9C7C38"/>
<path d="M57.5893 227.168H61.368V219.609H57.5893V227.168Z" fill="#9C7C38"/>
<path d="M53.8093 223.388H57.588V215.829H53.8093V223.388Z" fill="#9C7C38"/>
<path d="M65.1493 230.949H61.3707V223.389H65.1493V230.949Z" fill="#9C7C38"/>
<path d="M68.9267 212.051H76.4867V208.272H68.9267V212.051Z" fill="#9C7C38"/>
<path d="M72.7066 204.492H68.928V212.051H72.7066V204.492Z" fill="#9C7C38"/>
<path d="M133.179 155.357H129.4V162.917H133.179V155.357Z" fill="#9C7C38"/>
<path d="M136.957 151.576H133.179V159.136H136.957V151.576Z" fill="#9C7C38"/>
<path d="M140.736 147.799H136.957V155.357H140.736V147.799Z" fill="#9C7C38"/>
<path d="M140.738 155.357V151.578L133.178 151.579V155.358L140.738 155.357Z" fill="#9C7C38"/>
<path d="M136.96 155.357H129.4V159.136H136.96V155.357Z" fill="#9C7C38"/>
<path d="M133.181 196.933H140.739V200.713H133.181V196.933Z" fill="#9C7C38"/>
<path d="M99.1653 208.272H102.944V212.053H99.1653V208.272Z" fill="#9C7C38"/>
<path d="M91.6053 208.272H95.384V212.053H91.6053V208.272Z" fill="#9C7C38"/>
<path d="M129.401 242.288H133.18V246.068H129.401V242.288Z" fill="#9C7C38"/>
<path d="M136.96 159.136H140.739V162.917H136.96V159.136Z" fill="#9C7C38"/>
<path d="M133.181 140.241H136.96V144.02H133.181V140.241Z" fill="#9C7C38"/>
<path d="M129.4 144.02H133.177V147.8H129.4V144.02Z" fill="#9C7C38"/>
<path d="M125.62 147.797H129.399V151.579H125.62V147.797Z" fill="#9C7C38"/>
<path d="M121.84 151.577H125.619V155.357H121.84V151.577Z" fill="#9C7C38"/>
<path d="M118.06 155.357H121.839V159.136H118.06V155.357Z" fill="#9C7C38"/>
<path d="M114.28 159.136H118.059V162.916H114.28V159.136Z" fill="#9C7C38"/>
<path d="M110.5 162.915H114.279V166.696H110.5V162.915Z" fill="#9C7C38"/>
<path d="M106.721 166.695H110.5V170.475H106.721V166.695Z" fill="#9C7C38"/>
<path d="M102.941 170.475H106.72V174.253H102.941V170.475Z" fill="#9C7C38"/>
<path d="M99.1613 174.253H102.94V178.033H99.1613V174.253Z" fill="#9C7C38"/>
<path d="M95.3813 178.032H99.16V181.813H95.3813V178.032Z" fill="#9C7C38"/>
<path d="M91.6013 181.812H95.38V185.592H91.6013V181.812Z" fill="#9C7C38"/>
<path d="M87.8213 185.592H91.6V189.371H87.8213V185.592Z" fill="#9C7C38"/>
<path d="M84.0413 189.371H87.82V193.151H84.0413V189.371Z" fill="#9C7C38"/>
<path d="M80.2613 193.149H84.04V196.931H80.2613V193.149Z" fill="#9C7C38"/>
<path d="M76.4813 196.929H80.26V200.709H76.4813V196.929Z" fill="#9C7C38"/>
<path d="M72.7013 200.709H76.48V204.488H72.7013V200.709Z" fill="#9C7C38"/>
<path d="M125.623 246.067H129.401V249.848H125.623V246.067Z" fill="#9C7C38"/>
<path d="M121.844 249.847H125.623V253.627H121.844V249.847Z" fill="#9C7C38"/>
<path d="M110.503 212.051H118.062V215.829H121.842V212.051H125.622V208.272H129.401H129.402V204.493H133.181V200.712H118.061V204.491H114.283V208.269H110.503V212.051Z" fill="#9C7C38"/>
<path d="M121.842 219.611H125.622V227.171H129.402V223.391H133.18V219.611H136.959V204.493H133.178V208.272H129.4V212.052H125.622V215.832H121.842V219.611Z" fill="#9C7C38"/>
<path d="M125.623 170.478V178.035H121.842V181.816H125.623V185.595H129.4V189.374H129.402V189.376H133.18V193.155H136.959V178.035H133.18V174.256H129.402V170.478H125.623Z" fill="#9C7C38"/>
<path d="M118.061 181.816V185.595H110.503V189.376H114.282V193.155H118.061V196.934H133.178V193.152H129.401V189.374H125.621V185.595H121.842V181.816H118.061Z" fill="#9C7C38"/>
<path d="M118.061 162.917H121.841V178.036H118.061V162.917Z" fill="#9C7C38"/>
<path d="M114.281 166.697H121.841V178.036H114.281V166.697Z" fill="#9C7C38"/>
<path d="M110.501 174.256H117.765V178.036H110.501V174.256Z" fill="#9C7C38"/>
<path d="M102.944 178.035H106.724V193.153H102.944V178.035Z" fill="#9C7C38"/>
<path d="M95.384 189.376H99.164V204.493H95.384V189.376Z" fill="#9C7C38"/>
<path d="M99.164 181.815H106.724V193.153H99.164V181.815Z" fill="#9C7C38"/>
<path d="M95.384 189.373H102.648V193.153H95.384V189.373Z" fill="#9C7C38"/>
<path d="M95.384 193.155H102.944V200.793H95.384V193.155Z" fill="#9C7C38"/>
<path d="M87.8253 193.152H91.6053V208.271H87.8253V193.152Z" fill="#9C7C38"/>
<path d="M84.0453 196.932H91.6053V208.271H84.0453V196.932Z" fill="#9C7C38"/>
<path d="M80.2653 204.491H87.5293V208.271H80.2653V204.491Z" fill="#9C7C38"/>
<path d="M84.0449 261.184V264.964H87.8262V261.184H91.6049V257.405H95.3849V261.184H99.1636V264.964H102.945V261.184H106.724V257.405H102.945V253.625H99.1649V249.845H95.3849V246.066H91.6062V249.845H87.8262V253.625H84.0449V257.405H80.2662V261.184H84.0449Z" fill="#9C7C38"/>
<path d="M16.0133 140.241H4.67465V144.02H16.0133V140.241Z" fill="#9C7C38"/>
<path d="M31.1307 140.241H19.792V144.02H31.1307V140.241Z" fill="#9C7C38"/>
<path d="M31.1307 162.917H19.792V166.696H31.1307V162.917Z" fill="#9C7C38"/>
<path d="M27.352 144.02H16.0133V147.799H27.352V144.02Z" fill="#9C7C38"/>
<path d="M34.9106 159.136H16.0133V162.917H34.9106V159.136Z" fill="#9C7C38"/>
<path d="M23.572 147.797H12.2333V151.576H23.572V147.797Z" fill="#9C7C38"/>
<path d="M42.4693 162.913H34.9106V166.695H42.4693V162.913Z" fill="#9C7C38"/>
<path d="M53.808 170.475H46.2493V196.931H53.808V170.475Z" fill="#9C7C38"/>
<path d="M57.588 174.253H50.0293V193.155H57.588V174.253Z" fill="#9C7C38"/>
<path d="M50.028 193.151H42.4693V200.712H50.028V193.151Z" fill="#9C7C38"/>
<path d="M23.572 155.357H12.2333V159.136H23.572V155.357Z" fill="#9C7C38"/>
<path d="M38.6907 155.357H27.352V159.136H38.6907V155.357Z" fill="#9C7C38"/>
<path d="M42.4693 151.576H31.1307V155.357H42.4693V151.576Z" fill="#9C7C38"/>
<path d="M46.2493 147.797H34.9106V151.579H46.2493V147.797Z" fill="#9C7C38"/>
<path d="M50.0293 144.02H38.6907V147.801H50.0293V144.02Z" fill="#9C7C38"/>
<path d="M53.8093 140.241H42.4706V144.023H53.8093V140.241Z" fill="#9C7C38"/>
<path d="M19.7933 151.576H8.45465V155.355H19.7933V151.576Z" fill="#9C7C38"/>
<path d="M12.2333 144.02H0.894653V147.799H12.2333V144.02Z" fill="#9C7C38"/>
<path d="M8.45333 151.579H4.67334V140.24H8.45333V151.579Z" fill="#9C7C38"/>
<path d="M27.352 170.475H23.572V159.136H27.352V170.475Z" fill="#9C7C38"/>
<path d="M38.6907 181.813H34.9106V170.475H38.6907V181.813Z" fill="#9C7C38"/>
<path d="M53.808 166.696V162.918H50.0293V159.136H53.808V155.358H57.588V159.136H61.368V162.918H57.588V166.696H53.808Z" fill="#9C7C38"/>
<path d="M76.4862 170.475V166.696H72.7062V162.915H76.4862V159.136H80.2662V162.915H84.0449V166.696H80.2662V170.475H76.4862Z" fill="#9C7C38"/>
<path d="M38.6908 212.051V208.272H34.9121V204.491H38.6908V200.712H42.4708V204.491H46.2508V208.272H42.4708V212.051H38.6908Z" fill="#9C7C38"/>
<path d="M38.6908 227.168V223.389H34.9121V219.608H38.6908V215.829H42.4708V219.608H46.2508V223.389H42.4708V227.168H38.6908Z" fill="#9C7C38"/>
<path d="M31.1308 219.611V215.832H27.3508V212.051H31.1308V208.272H34.9108V212.051H38.6894V215.832H34.9108V219.611H31.1308Z" fill="#9C7C38"/>
<path d="M46.2493 162.913H42.4693V155.356H46.2493V162.913Z" fill="#9C7C38"/>
<path d="M42.4693 166.695H38.6893V159.135H42.4693V166.695Z" fill="#9C7C38"/>
<path d="M38.6907 174.256H31.132V178.035H38.6907V174.256Z" fill="#9C7C38"/>
<path d="M46.2493 178.035H34.9106V181.813H46.2493V178.035Z" fill="#9C7C38"/>
<path d="M46.2493 193.152H34.9106V196.933H46.2493V193.152Z" fill="#9C7C38"/>
<path d="M42.4693 185.595H34.9106V189.373H42.4693V185.595Z" fill="#9C7C38"/>
<path d="M38.6907 189.373H31.132V193.152H38.6907V189.373Z" fill="#9C7C38"/>
<path d="M65.1453 178.035H53.808V181.816H65.1453V178.035Z" fill="#9C7C38"/>
<path d="M65.1453 185.595H53.808V189.373H65.1453V185.595Z" fill="#9C7C38"/>
<path d="M38.6907 178.035H34.9106V170.477H38.6907V178.035Z" fill="#9C7C38"/>
<path d="M50.0293 189.372H42.4693V174.256H50.0293V189.372Z" fill="#9C7C38"/>
<path d="M42.4706 196.933H34.912V185.595H42.4706V196.933Z" fill="#9C7C38"/>
<path d="M12.2333 147.797H8.45331V140.24H12.2333V147.797Z" fill="#9C7C38"/>
<path d="M38.6907 140.241H34.9106V144.02H38.6907V140.241Z" fill="#9C7C38"/>
<path d="M114.281 140.241H106.721V144.02H114.281V140.241Z" fill="#9C7C38"/>
<path d="M118.06 144.02H110.5V147.799H118.06V144.02Z" fill="#9C7C38"/>
<path d="M114.281 151.579H118.06V144.019H114.281V151.579Z" fill="#9C7C38"/>
<path d="M110.504 147.801H114.282L114.281 140.241H110.502L110.504 147.801Z" fill="#9C7C38"/>
<path d="M61.3707 204.493H65.1494L65.1481 196.933H61.3694L61.3707 204.493Z" fill="#9C7C38"/>
<path d="M57.5908 208.272H61.3695L61.3682 200.712H57.5895L57.5908 208.272Z" fill="#9C7C38"/>
<path d="M53.8107 212.051H57.5893V204.491H53.8107V212.051Z" fill="#9C7C38"/>
<path d="M57.588 204.491H68.9267V200.712H57.588V204.491Z" fill="#9C7C38"/>
<path d="M53.8107 208.272H61.3693V204.493H53.8107V208.272Z" fill="#9C7C38"/>
<path d="M50.0306 215.829H53.8093V208.269H50.0306V215.829Z" fill="#9C7C38"/>
<path d="M50.0306 212.051H57.5893V208.272H50.0306V212.051Z" fill="#9C7C38"/>
<path d="M50.0306 212.051H53.8093V219.611H50.0306V212.051Z" fill="#9C7C38"/>
<path d="M50.0306 215.832H57.5893V219.611H50.0306V215.832Z" fill="#9C7C38"/>
<path d="M46.2507 215.829H53.8093V212.051H46.2507V215.829Z" fill="#9C7C38"/>
<path d="M68.9264 208.272H65.1477L65.149 200.712H68.9277L68.9264 208.272Z" fill="#9C7C38"/>
<path d="M72.7067 208.272H65.148V204.493H72.7067V208.272Z" fill="#9C7C38"/>
<path d="M121.84 147.8H114.281V144.021H121.84V147.8Z" fill="#9C7C38"/>
<path d="M125.621 144.02H118.061V140.241H125.621V144.02Z" fill="#9C7C38"/>
<path d="M118.063 140.241H121.842L121.84 147.801H118.062L118.063 140.241Z" fill="#9C7C38"/>
<path d="M80.2667 140.241H76.4867V144.02H80.2667V140.241Z" fill="#9C7C38"/>
<path d="M68.9267 174.256H65.1467V178.035H68.9267V174.256Z" fill="#9C7C38"/>
<path d="M68.9267 181.816H65.1467V185.595H68.9267V181.816Z" fill="#9C7C38"/>
<path d="M34.9107 144.02H31.1307V147.799H34.9107V144.02Z" fill="#9C7C38"/>
<path d="M31.132 147.797H27.352V151.576H31.132V147.797Z" fill="#9C7C38"/>
<path d="M27.352 151.576H23.572V155.355H27.352V151.576Z" fill="#9C7C38"/>
<path d="M65.149 166.696V159.136H61.369V155.358H65.149V151.576H68.9264V147.798H68.9277H72.7064V144.019H76.4864V159.139H72.7077V162.915H68.929V166.696H65.149Z" fill="#9C7C38"/>
<path d="M57.5878 155.358V151.577H50.0292V147.798H53.8078V144.019H57.5878V140.241H72.7052V144.019H68.9265V147.798H65.1465V151.577H61.3678V155.358H57.5878Z" fill="#9C7C38"/>
<path d="M106.722 151.577H99.1633V155.358H95.3833V151.577H91.6033V147.798H87.8247H87.8233V144.019H84.0447V140.241H99.1647V144.019H102.942V147.798H106.722V151.577Z" fill="#9C7C38"/>
<path d="M95.3834 159.139H91.6034V166.697H87.8234V162.918H84.0448V159.139H80.2661V144.019H84.0461V147.798H87.8248V151.579H91.6034V155.358H95.3834V159.139Z" fill="#9C7C38"/>
<path d="M114.28 155.357H99.1613V159.136H114.28V155.357Z" fill="#9C7C38"/>
<path d="M110.5 155.357H99.1613V162.917H110.5V155.357Z" fill="#9C7C38"/>
<path d="M102.943 159.433H99.1627V166.696H102.943V159.433Z" fill="#9C7C38"/>
<path d="M99.164 170.475H84.0453V174.256H99.164V170.475Z" fill="#9C7C38"/>
<path d="M87.824 178.035H72.7053V181.816H87.824V178.035Z" fill="#9C7C38"/>
<path d="M95.384 170.475H84.0453V178.035H95.384V170.475Z" fill="#9C7C38"/>
<path d="M76.4867 151.873H72.7067V159.139H76.4867V151.873Z" fill="#9C7C38"/>
<path d="M84.044 174.256H76.4053V181.816H84.044V174.256Z" fill="#9C7C38"/>
<path d="M84.0467 185.595H68.928V189.373H84.0467V185.595Z" fill="#9C7C38"/>
<path d="M80.2666 185.595H68.928V193.155H80.2666V185.595Z" fill="#9C7C38"/>
<path d="M72.708 189.671H68.928V196.933H72.708V189.671Z" fill="#9C7C38"/>
<path d="M16.0137 193.154H12.235V189.372H16.0137V185.594H19.7937V181.814H16.0137V178.035H12.235V174.254H16.0137V170.475H19.7937V174.254H23.5737V178.034H27.3537V181.814H31.1324V185.592H27.3537V189.372H23.5737V193.154H19.7937V196.932H16.0137V193.154Z" fill="#9C7C38"/>
<path d="M16.012 136.46H4.67334V132.681H16.012V136.46Z" fill="#9C7C38"/>
<path d="M19.792 140.241H8.45331V136.46H19.792V140.241Z" fill="#9C7C38"/>
<path d="M34.9107 140.241H23.572V136.46H34.9107V140.241Z" fill="#9C7C38"/>
<path d="M57.588 140.241H46.2493V136.46H57.588V140.241Z" fill="#9C7C38"/>
<path d="M84.044 140.241H72.7053V136.46H84.044V140.241Z" fill="#9C7C38"/>
<path d="M31.1307 136.46H19.792V132.681H31.1307V136.46Z" fill="#9C7C38"/>
<path d="M31.1307 113.783H19.792V110.004H31.1307V113.783Z" fill="#9C7C38"/>
<path d="M27.3507 132.681H16.012V128.903H27.3507V132.681Z" fill="#9C7C38"/>
<path d="M34.9093 117.564H16.012V113.783H34.9093V117.564Z" fill="#9C7C38"/>
<path d="M23.572 128.903H12.2333V125.124H23.572V128.903Z" fill="#9C7C38"/>
<path d="M42.4693 113.784H34.9106V110.003H42.4693V113.784Z" fill="#9C7C38"/>
<path d="M53.8067 106.225H46.2493V79.7694H53.8067V106.225Z" fill="#9C7C38"/>
<path d="M57.5867 102.447H50.0293V83.5454H57.5867V102.447Z" fill="#9C7C38"/>
<path d="M50.028 83.5468H42.4693V75.9881H50.028V83.5468Z" fill="#9C7C38"/>
<path d="M23.572 121.343H12.2333V117.564H23.572V121.343Z" fill="#9C7C38"/>
<path d="M38.6893 121.343H27.3506V117.564H38.6893V121.343Z" fill="#9C7C38"/>
<path d="M42.4693 125.124H31.1307V121.343H42.4693V125.124Z" fill="#9C7C38"/>
<path d="M46.2493 128.903H34.9106V125.121H46.2493V128.903Z" fill="#9C7C38"/>
<path d="M50.0293 132.681H38.6907V128.9H50.0293V132.681Z" fill="#9C7C38"/>
<path d="M53.8093 136.46H42.4706V132.679H53.8093V136.46Z" fill="#9C7C38"/>
<path d="M19.792 125.124H8.45331V121.345H19.792V125.124Z" fill="#9C7C38"/>
<path d="M12.2333 132.681H0.894653V128.903H12.2333V132.681Z" fill="#9C7C38"/>
<path d="M8.45333 125.121H4.67334V136.46H8.45333V125.121Z" fill="#9C7C38"/>
<path d="M27.3507 106.225H23.5706V117.564H27.3507V106.225Z" fill="#9C7C38"/>
<path d="M38.6907 94.8868H34.9106V106.225H38.6907V94.8868Z" fill="#9C7C38"/>
<path d="M53.808 110.004V113.783H50.028V117.564H53.808V121.343H57.588V117.564H61.3667V113.783H57.588V110.004H53.808Z" fill="#9C7C38"/>
<path d="M76.4851 106.225V110.004H72.7064V113.785H76.4851V117.564H80.2651V113.785H84.0451V110.004H80.2651V106.225H76.4851Z" fill="#9C7C38"/>
<path d="M38.6908 64.6497V68.4284H34.9108V72.2097H38.6908V75.9884H42.4708V72.2097H46.2494V68.4284H42.4708V64.6497H38.6908Z" fill="#9C7C38"/>
<path d="M38.6908 49.5325V53.3112H34.9108V57.0925H38.6908V60.8712H42.4708V57.0925H46.2494V53.3112H42.4708V49.5325H38.6908Z" fill="#9C7C38"/>
<path d="M31.1296 57.0897V60.8683H27.3509V64.6497H31.1296V68.4283H34.9096V64.6497H38.6896V60.8683H34.9096V57.0897H31.1296Z" fill="#9C7C38"/>
<path d="M46.2468 41.9727V45.7513H42.4681V49.5327H46.2468V53.3113H50.0268V49.5327H53.8068V45.7513H50.0268V41.9727H46.2468Z" fill="#9C7C38"/>
<path d="M46.2507 113.784H42.4706V121.341H46.2507V113.784Z" fill="#9C7C38"/>
<path d="M42.4707 110.003H38.6907V117.563H42.4707V110.003Z" fill="#9C7C38"/>
<path d="M38.6893 102.444H31.1307V98.6654H38.6893V102.444Z" fill="#9C7C38"/>
<path d="M46.248 98.6654H34.9106V94.8868H46.248V98.6654Z" fill="#9C7C38"/>
<path d="M46.248 83.5481H34.9106V79.7668H46.248V83.5481Z" fill="#9C7C38"/>
<path d="M42.4693 91.1055H34.9106V87.3267H42.4693V91.1055Z" fill="#9C7C38"/>
<path d="M38.6893 87.3267H31.1307V83.5481H38.6893V87.3267Z" fill="#9C7C38"/>
<path d="M65.1453 98.6654H53.8066V94.8841H65.1453V98.6654Z" fill="#9C7C38"/>
<path d="M65.1453 91.1055H53.8066V87.3267H65.1453V91.1055Z" fill="#9C7C38"/>
<path d="M38.6893 98.6654H34.9093V106.223H38.6893V98.6654Z" fill="#9C7C38"/>
<path d="M50.0293 87.3254H42.4693V102.444H50.0293V87.3254Z" fill="#9C7C38"/>
<path d="M42.4706 79.7668H34.9106V91.1055H42.4706V79.7668Z" fill="#9C7C38"/>
<path d="M12.232 128.903H8.45331V136.46H12.232V128.903Z" fill="#9C7C38"/>
<path d="M38.6893 136.46H34.9093V132.681H38.6893V136.46Z" fill="#9C7C38"/>
<path d="M42.4693 140.239H38.6893V136.46H42.4693V140.239Z" fill="#9C7C38"/>
<path d="M110.5 140.239H102.941V136.46H110.5V140.239Z" fill="#9C7C38"/>
<path d="M114.281 136.46H106.721V132.681H114.281V136.46Z" fill="#9C7C38"/>
<path d="M118.059 132.681H110.5V128.903H118.059V132.681Z" fill="#9C7C38"/>
<path d="M114.282 125.121H118.061L118.059 132.681H114.281L114.282 125.121Z" fill="#9C7C38"/>
<path d="M110.501 128.9H114.28V136.46H110.501V128.9Z" fill="#9C7C38"/>
<path d="M106.723 132.678H110.502L110.501 140.238H106.722L106.723 132.678Z" fill="#9C7C38"/>
<path d="M61.3693 57.0894H65.148V68.4281H61.3693V57.0894Z" fill="#9C7C38"/>
<path d="M61.3693 72.2067H65.148V79.7667H61.3693V72.2067Z" fill="#9C7C38"/>
<path d="M57.5893 68.4281H61.368V75.9881H57.5893V68.4281Z" fill="#9C7C38"/>
<path d="M53.8105 64.6497H57.5892L57.5878 72.2097H53.8092L53.8105 64.6497Z" fill="#9C7C38"/>
<path d="M57.588 60.8681H68.9267V64.6467H57.588V60.8681Z" fill="#9C7C38"/>
<path d="M57.588 72.2095H68.9267V75.9881H57.588V72.2095Z" fill="#9C7C38"/>
<path d="M53.8093 68.4281H61.3693V72.2068H53.8093V68.4281Z" fill="#9C7C38"/>
<path d="M50.0305 60.871H53.8092L53.8078 68.431H50.0292L50.0305 60.871Z" fill="#9C7C38"/>
<path d="M50.0293 64.6494H57.5893V68.4281H50.0293V64.6494Z" fill="#9C7C38"/>
<path d="M50.0308 64.6497H53.8095L53.8082 57.0897H50.0295L50.0308 64.6497Z" fill="#9C7C38"/>
<path d="M50.0293 60.868H57.5893V57.0894H50.0293V60.868Z" fill="#9C7C38"/>
<path d="M53.808 57.0894H61.368V53.3108H53.808V57.0894Z" fill="#9C7C38"/>
<path d="M46.2493 60.8708H53.8093V64.6494H46.2493V60.8708Z" fill="#9C7C38"/>
<path d="M68.9267 68.4281H65.148V75.9881H68.9267V68.4281Z" fill="#9C7C38"/>
<path d="M72.7067 68.4281H65.1467V72.2068H72.7067V68.4281Z" fill="#9C7C38"/>
<path d="M121.84 128.9H114.28V132.679H121.84V128.9Z" fill="#9C7C38"/>
<path d="M125.62 132.681H118.06V136.46H125.62V132.681Z" fill="#9C7C38"/>
<path d="M129.399 136.46H121.839V140.239H129.399V136.46Z" fill="#9C7C38"/>
<path d="M121.842 140.238H125.621L125.619 132.678H121.841L121.842 140.238Z" fill="#9C7C38"/>
<path d="M118.061 136.46H121.84V128.9H118.061V136.46Z" fill="#9C7C38"/>
<path d="M80.2653 140.241H76.4853V132.681H80.2653V140.241Z" fill="#9C7C38"/>
<path d="M68.9253 102.444H65.1453V98.6654H68.9253V102.444Z" fill="#9C7C38"/>
<path d="M68.9253 94.8841H65.1453V91.1054H68.9253V94.8841Z" fill="#9C7C38"/>
<path d="M34.9107 132.681H31.1307V128.903H34.9107V132.681Z" fill="#9C7C38"/>
<path d="M118.06 140.239H114.28V136.46H118.06V140.239Z" fill="#9C7C38"/>
<path d="M136.957 136.46H133.179V132.681H136.957V136.46Z" fill="#9C7C38"/>
<path d="M133.179 132.681H129.4V128.903H133.179V132.681Z" fill="#9C7C38"/>
<path d="M129.399 128.9H125.619V125.121H129.399V128.9Z" fill="#9C7C38"/>
<path d="M125.62 125.121H121.84V121.343H125.62V125.121Z" fill="#9C7C38"/>
<path d="M121.84 121.34H118.06V117.561H121.84V121.34Z" fill="#9C7C38"/>
<path d="M118.061 117.561H114.281V113.783H118.061V117.561Z" fill="#9C7C38"/>
<path d="M114.281 113.78H110.501V110.001H114.281V113.78Z" fill="#9C7C38"/>
<path d="M110.503 110.001H106.723V106.223H110.503V110.001Z" fill="#9C7C38"/>
<path d="M106.723 106.22H102.943V102.441H106.723V106.22Z" fill="#9C7C38"/>
<path d="M102.944 102.441H99.164V98.6628H102.944V102.441Z" fill="#9C7C38"/>
<path d="M99.1653 98.66H95.3853V94.8814H99.1653V98.66Z" fill="#9C7C38"/>
<path d="M95.3867 94.8814H91.6066V91.1028H95.3867V94.8814Z" fill="#9C7C38"/>
<path d="M91.6066 91.1001H87.8267V87.3215H91.6066V91.1001Z" fill="#9C7C38"/>
<path d="M87.828 87.3214H84.048V83.5428H87.828V87.3214Z" fill="#9C7C38"/>
<path d="M84.048 83.5401H80.268V79.7615H84.048V83.5401Z" fill="#9C7C38"/>
<path d="M80.2693 79.7615H76.4893V75.9827H80.2693V79.7615Z" fill="#9C7C38"/>
<path d="M76.4893 75.98H72.7093V72.2014H76.4893V75.98Z" fill="#9C7C38"/>
<path d="M31.1307 128.903H27.3506V125.124H31.1307V128.903Z" fill="#9C7C38"/>
<path d="M27.352 125.124H23.572V121.345H27.352V125.124Z" fill="#9C7C38"/>
<path d="M65.1477 110.004V117.564H61.3677V121.342H65.1477V125.124H68.9264V128.902H72.705V132.681H76.485V117.561H72.7064V113.785H68.9277V110.004H65.1477Z" fill="#9C7C38"/>
<path d="M57.5865 121.342V125.124H50.0278V128.902H53.8078V132.681H57.5865V136.46H72.7052V132.681H68.9265V128.902H65.1465V125.124H61.3665V121.342H57.5865Z" fill="#9C7C38"/>
<path d="M106.721 125.124H99.162V121.342H95.382V125.124H91.602V128.902H87.8233H87.822V132.681H84.0433V136.46H99.1633V132.681H102.941V128.902H106.721V125.124Z" fill="#9C7C38"/>
<path d="M95.3821 117.561H91.6021V110.004H87.8221V113.783H84.0434V117.561H80.2648V132.681H84.0448V128.903H87.8234V125.121H91.6021V121.343H95.3821V117.561Z" fill="#9C7C38"/>
<path d="M114.279 121.343H99.1613V117.564H114.279V121.343Z" fill="#9C7C38"/>
<path d="M110.5 121.343H99.1613V113.783H110.5V121.343Z" fill="#9C7C38"/>
<path d="M102.941 117.267H99.1627V110.004H102.941V117.267Z" fill="#9C7C38"/>
<path d="M99.1627 106.225H84.0453V102.444H99.1627V106.225Z" fill="#9C7C38"/>
<path d="M87.8227 98.6654H72.7053V94.8841H87.8227V98.6654Z" fill="#9C7C38"/>
<path d="M95.384 106.225H84.0453V98.6654H95.384V106.225Z" fill="#9C7C38"/>
<path d="M87.824 102.149H84.0453V94.8841H87.824V102.149Z" fill="#9C7C38"/>
<path d="M84.044 102.444H76.4053V94.8841H84.044V102.444Z" fill="#9C7C38"/>
<path d="M84.0453 91.1055H68.928V87.3267H84.0453V91.1055Z" fill="#9C7C38"/>
<path d="M80.2666 91.1055H68.928V83.5454H80.2666V91.1055Z" fill="#9C7C38"/>
<path d="M72.7066 87.0294H68.928V79.7667H72.7066V87.0294Z" fill="#9C7C38"/>
<path d="M16.0149 83.5454H12.2336V87.3267H16.0149V91.1054H19.7936V94.8841H16.0149V98.6627H12.2336V102.444H16.0149V106.223H19.7936V102.444H23.5722V98.6654H27.3536V94.8841H31.1322V91.1054H27.3536V87.3267H23.5722V83.5454H19.7936V79.7667H16.0149V83.5454Z" fill="#9C7C38"/>
<path d="M133.179 15.5147H136.957V4.17609H133.179V15.5147Z" fill="#9C7C38"/>
<path d="M133.179 30.6307H136.957V19.292H133.179V30.6307Z" fill="#9C7C38"/>
<path d="M110.5 30.6307H114.28V19.292H110.5V30.6307Z" fill="#9C7C38"/>
<path d="M129.399 26.8534H133.177V15.5147H129.399V26.8534Z" fill="#9C7C38"/>
<path d="M114.28 34.4121H118.06V15.5134H114.28V34.4121Z" fill="#9C7C38"/>
<path d="M125.62 23.0748H129.4V11.7361H125.62V23.0748Z" fill="#9C7C38"/>
<path d="M114.28 45.7507H118.06V38.1908H114.28V45.7507Z" fill="#9C7C38"/>
<path d="M80.2667 53.3081H106.723V45.7507H80.2667V53.3081Z" fill="#9C7C38"/>
<path d="M84.044 57.0894H102.945V49.5294H84.044V57.0894Z" fill="#9C7C38"/>
<path d="M76.4853 49.5294H84.0453V41.9694H76.4853V49.5294Z" fill="#9C7C38"/>
<path d="M118.06 23.0748H121.84V11.7361H118.06V23.0748Z" fill="#9C7C38"/>
<path d="M118.06 38.1907H121.84V26.8521H118.06V38.1907Z" fill="#9C7C38"/>
<path d="M121.84 41.9694H125.62V30.6307H121.84V41.9694Z" fill="#9C7C38"/>
<path d="M125.619 45.7507H129.399V34.4121H125.619V45.7507Z" fill="#9C7C38"/>
<path d="M129.397 49.5294H133.177V38.1907H129.397V49.5294Z" fill="#9C7C38"/>
<path d="M133.176 53.3108H136.957V41.9721H133.176V53.3108Z" fill="#9C7C38"/>
<path d="M121.841 19.296H125.621V7.9574H121.841V19.296Z" fill="#9C7C38"/>
<path d="M129.399 11.7361H133.177V0.397461H129.399V11.7361Z" fill="#9C7C38"/>
<path d="M136.957 7.95471H125.62V4.17607H136.957V7.95471Z" fill="#9C7C38"/>
<path d="M118.06 26.8534H106.721V23.0747H118.06V26.8534Z" fill="#9C7C38"/>
<path d="M106.723 38.1907H95.384V34.4121H106.723V38.1907Z" fill="#9C7C38"/>
<path d="M110.501 53.3085H114.281V49.5298H118.061V53.3085H121.839V57.0898H118.061V60.8685H114.281V57.0898H110.501V53.3085Z" fill="#9C7C38"/>
<path d="M106.722 75.9882H110.502V72.2069H114.282V75.9882H118.061V79.7669H114.282V83.5455H110.502V79.7669H106.722V75.9882Z" fill="#9C7C38"/>
<path d="M65.1465 38.1913H68.9265V34.4126H72.7065V38.1913H76.4852V41.9726H72.7065V45.7513H68.9265V41.9726H65.1465V38.1913Z" fill="#9C7C38"/>
<path d="M50.0293 38.1913H53.8093V34.4126H57.5893V38.1913H61.368V41.9726H57.5893V45.7513H53.8093V41.9726H50.0293V38.1913Z" fill="#9C7C38"/>
<path d="M57.5865 30.6314H61.3665V26.8527H65.1465V30.6314H68.9252V34.4127H65.1465V38.1914H61.3665V34.4127H57.5865V30.6314Z" fill="#9C7C38"/>
<path d="M121.839 45.7507H114.28V41.9694H121.839V45.7507Z" fill="#9C7C38"/>
<path d="M110.501 41.9708H114.281V34.4108H110.501V41.9708Z" fill="#9C7C38"/>
<path d="M118.06 41.9708H110.501V38.1894H118.06V41.9708Z" fill="#9C7C38"/>
<path d="M99.1627 38.1907H102.943V30.6334H99.1627V38.1907Z" fill="#9C7C38"/>
<path d="M95.384 45.7507H99.164V34.4121H95.384V45.7507Z" fill="#9C7C38"/>
<path d="M80.2653 45.7507H84.0453V34.4121H80.2653V45.7507Z" fill="#9C7C38"/>
<path d="M87.824 41.9694H91.604V34.4121H87.824V41.9694Z" fill="#9C7C38"/>
<path d="M84.0453 38.1907H87.8253V30.6334H84.0453V38.1907Z" fill="#9C7C38"/>
<path d="M95.3826 64.6467H99.1627V53.3081H95.3826V64.6467Z" fill="#9C7C38"/>
<path d="M87.824 64.6467H91.604V53.3081H87.824V64.6467Z" fill="#9C7C38"/>
<path d="M106.721 38.1907H99.1627V34.4121H106.721V38.1907Z" fill="#9C7C38"/>
<path d="M102.943 49.5294H87.8253V41.9694H102.943V49.5294Z" fill="#9C7C38"/>
<path d="M91.604 41.9708H80.2653V34.4121H91.604V41.9708Z" fill="#9C7C38"/>
<path d="M136.957 11.7361H129.4V7.95474H136.957V11.7361Z" fill="#9C7C38"/>
<path d="M133.179 38.1907H136.957V34.4121H133.179V38.1907Z" fill="#9C7C38"/>
<path d="M133.179 113.783H136.957V106.223H133.179V113.783Z" fill="#9C7C38"/>
<path d="M129.399 117.561H133.177V110.001H129.399V117.561Z" fill="#9C7C38"/>
<path d="M125.619 117.561H133.177V113.783H125.619V117.561Z" fill="#9C7C38"/>
<path d="M129.397 113.783H136.956V110.004H129.397V113.783Z" fill="#9C7C38"/>
<path d="M72.7053 64.6494H80.2653V60.8708H72.7053V64.6494Z" fill="#9C7C38"/>
<path d="M68.925 57.0923V60.871L76.485 60.8683V57.0896L68.925 57.0923Z" fill="#9C7C38"/>
<path d="M65.1467 57.0894H72.7067V53.3108H65.1467V57.0894Z" fill="#9C7C38"/>
<path d="M76.4853 57.0894H72.7067V68.4281H76.4853V57.0894Z" fill="#9C7C38"/>
<path d="M72.7053 53.3108H68.9267V60.8707H72.7053V53.3108Z" fill="#9C7C38"/>
<path d="M61.368 53.3108H68.928V49.5321H61.368V53.3108Z" fill="#9C7C38"/>
<path d="M68.9267 49.532H65.148V57.0894H68.9267V49.532Z" fill="#9C7C38"/>
<path d="M65.1467 53.3108H57.5867V49.5321H65.1467V53.3108Z" fill="#9C7C38"/>
<path d="M57.588 49.532H61.3666V57.0894H57.588V49.532Z" fill="#9C7C38"/>
<path d="M65.148 45.7507H61.3693V53.3108H65.148V45.7507Z" fill="#9C7C38"/>
<path d="M68.9253 64.6494H76.4853V68.4281H68.9253V64.6494Z" fill="#9C7C38"/>
<path d="M72.7053 72.2068H68.9267V64.6494H72.7053V72.2068Z" fill="#9C7C38"/>
<path d="M133.176 121.343H129.399V113.783H133.176V121.343Z" fill="#9C7C38"/>
<path d="M136.957 125.124H133.179V117.564H136.957V125.124Z" fill="#9C7C38"/>
<path d="M136.957 121.343H129.399V117.564H136.957V121.343Z" fill="#9C7C38"/>
<path d="M133.179 79.7667H136.957V75.9881H133.179V79.7667Z" fill="#9C7C38"/>
<path d="M0.894653 140.241H4.67332V136.46H0.894653V140.241Z" fill="#9C7C38"/>
<path d="M99.164 68.4281H102.943V64.6467H99.164V68.4281Z" fill="#9C7C38"/>
<path d="M91.604 68.4281H95.3826V64.6467H91.604V68.4281Z" fill="#9C7C38"/>
<path d="M129.4 34.4121H133.177V30.6308H129.4V34.4121Z" fill="#9C7C38"/>
<path d="M125.621 30.6334H129.4V26.8521H125.621V30.6334Z" fill="#9C7C38"/>
<path d="M121.843 26.8534H125.621V23.0747H121.843V26.8534Z" fill="#9C7C38"/>
<path d="M110.502 64.6497H118.061V60.8711H121.841V64.6497H125.621V68.4284H129.399H129.401V72.2071H133.178V75.9884H118.059V72.2097H114.282V68.4311H110.502V64.6497Z" fill="#9C7C38"/>
<path d="M121.841 57.0897H125.621V49.5297H129.401V53.3084H133.178V57.0897H136.957V72.207H133.178V68.4284H129.399V64.647H125.621V60.8684H121.841V57.0897Z" fill="#9C7C38"/>
<path d="M125.622 106.223V98.6653H121.84V94.884H125.622V91.1053H129.399V87.3267H129.4V87.324H133.178V83.5453H136.956V98.6653H133.178V102.444H129.4V106.223H125.622Z" fill="#9C7C38"/>
<path d="M118.059 94.8839V91.1052H110.502V87.3239H114.281V83.5452H118.059V79.7666H133.178V83.5479H129.399V87.3266H125.619V91.1052H121.841V94.8839H118.059Z" fill="#9C7C38"/>
<path d="M118.06 113.783H121.84V98.6627H118.06V113.783Z" fill="#9C7C38"/>
<path d="M114.28 110.001H121.84V98.6628H114.28V110.001Z" fill="#9C7C38"/>
<path d="M110.5 102.444H117.764V98.6628H110.5V102.444Z" fill="#9C7C38"/>
<path d="M102.943 98.6654H106.723V83.5454H102.943V98.6654Z" fill="#9C7C38"/>
<path d="M95.3826 87.3241H99.1627V72.2067H95.3826V87.3241Z" fill="#9C7C38"/>
<path d="M99.1627 94.8841H106.723V83.5454H99.1627V94.8841Z" fill="#9C7C38"/>
<path d="M118.059 75.9881H125.323V72.2068H118.059V75.9881Z" fill="#9C7C38"/>
<path d="M95.3826 83.5454H102.943V75.9067H95.3826V83.5454Z" fill="#9C7C38"/>
<path d="M87.824 83.5481H91.604V68.4281H87.824V83.5481Z" fill="#9C7C38"/>
<path d="M84.044 79.7667H91.604V68.4281H84.044V79.7667Z" fill="#9C7C38"/>
<path d="M80.264 72.2095H87.528V68.4281H80.264V72.2095Z" fill="#9C7C38"/>
<path d="M84.0449 15.5143V11.7356H87.8262V15.5143H91.6049V19.2929H95.3849V15.5143H99.1636V11.7356H102.945V15.5143H106.724V19.2929H102.945V23.0743H99.1649V26.8529H95.3849V30.6316H91.6062V26.8529H87.8262V23.0743H84.0449V19.2929H80.2662V15.5143H84.0449Z" fill="#9C7C38"/>
<path d="M148.299 280.081H144.52V291.419H148.299V280.081Z" fill="#9C7C38"/>
<path d="M140.741 280.08H148.299V287.637H140.741V280.08Z" fill="#9C7C38"/>
<path d="M133.181 276.301H144.517V283.859H133.181V276.301Z" fill="#9C7C38"/>
<path d="M136.96 272.523H140.739V283.861H136.96V272.523Z" fill="#9C7C38"/>
<path d="M129.4 280.081H133.18V291.419H129.4V280.081Z" fill="#9C7C38"/>
<path d="M136.96 280.08H129.401V287.637H136.96V280.08Z" fill="#9C7C38"/>
<path d="M148.299 295.199H144.52V306.537H148.299V295.199Z" fill="#9C7C38"/>
<path d="M140.741 295.196H148.299V302.756H140.741V295.196Z" fill="#9C7C38"/>
<path d="M133.181 291.417H144.517V298.977H133.181V291.417Z" fill="#9C7C38"/>
<path d="M136.96 287.639H140.739V298.977H136.96V287.639Z" fill="#9C7C38"/>
<path d="M129.4 295.199H133.18V306.537H129.4V295.199Z" fill="#9C7C38"/>
<path d="M136.96 295.196H129.401V302.756H136.96V295.196Z" fill="#9C7C38"/>
<path d="M140.739 302.759H136.96V306.54H140.739V302.759Z" fill="#9C7C38"/>
<path d="M57.3763 325.172L49.4843 340.53H57.2003V343.899H38.7469L46.6643 328.542H39.8216V325.172H57.3763Z" fill="#9C7C38"/>
<path d="M80.1823 340.529V343.899H63.9996V325.172H79.7583L79.7316 328.543H72.1409V332.188H77.8103V335.56H72.1409V340.529H80.1823Z" fill="#9C7C38"/>
<path d="M102.984 340.529V343.899H86.8018V325.172H94.9431V340.529H102.984Z" fill="#9C7C38"/>
<path d="M125.892 328.542H119.475V343.9H111.333V328.542H104.917V325.173H125.892V328.542Z" fill="#9C7C38"/>
<path d="M166.671 340.529C167.368 340.529 167.971 340.287 168.468 339.805C168.968 339.321 169.217 338.74 169.217 338.056C169.217 337.341 168.973 336.743 168.48 336.259C167.988 335.777 167.387 335.535 166.671 335.535H163.423V340.529H166.671ZM166.572 332.188C167.121 332.188 167.577 332.013 167.944 331.665C168.309 331.316 168.493 330.881 168.493 330.365C168.493 329.884 168.301 329.459 167.919 329.092C167.535 328.727 167.088 328.543 166.572 328.543H163.423V332.188H166.572ZM155.283 343.899V325.172H166.845C167.761 325.172 168.635 325.417 169.468 325.909C170.299 326.399 170.931 327.037 171.365 327.819C171.813 328.652 172.04 329.508 172.04 330.391C172.04 331.472 171.613 332.529 170.764 333.56C172.113 334.677 172.788 336.175 172.788 338.056C172.788 339.056 172.559 340.003 172.1 340.904C171.644 341.803 170.957 342.527 170.04 343.076C169.127 343.625 168.152 343.899 167.121 343.899H155.283Z" fill="#9C7C38"/>
<path d="M195.108 340.529V343.899H178.925V325.172H194.684L194.657 328.543H187.067V332.188H192.736V335.56H187.067V340.529H195.108Z" fill="#9C7C38"/>
<path d="M217.533 340.529V343.899H201.35V325.172H209.491V340.529H217.533Z" fill="#9C7C38"/>
<path d="M238.952 340.529V343.899H222.772V325.172H238.528L238.504 328.543H230.913V332.188H236.583V335.56H230.913V340.529H238.952Z" fill="#9C7C38"/>
<path d="M144.02 325.456H133.395V322.828H144.02V325.456Z" fill="#9C7C38"/>
<path d="M134.16 337.982L136.483 332.089L138.805 337.982H134.16ZM143.184 327.209H134.756L128.191 343.9H131.837L132.936 341.078H140.029L141.152 343.9H149.793L143.184 327.209Z" fill="#9C7C38"/>
</svg>
